<svg xmlns="http://www.w3.org/2000/svg" viewBox="0 0 64 64" fill="none" stroke="#293f43" stroke-width="1.8" stroke-linecap="round" stroke-linejoin="round">
<path fill="#9fa9a5" d="m12 29-6-9 10-1-3-10 12 2 7-7 7 7 12-2-3 10 10 1-6 9 5 9-8 3-2 13-15 7-15-7-2-13-8-3Z"/><ellipse cx="13" cy="32" rx="6" ry="9" fill="#bac2b7"/><ellipse cx="51" cy="32" rx="6" ry="9" fill="#bac2b7"/><path fill="#e0dec9" d="M18 22c5-5 11-3 14 0 5-4 12-4 15 1l-3 13 2 10-14 9-14-9 2-10Z"/><path fill="#5d7873" stroke="none" d="m19 20 8 3-6 2Zm0 8 8 2-6 3Zm18-5 8-3-2 5Zm0 7 8-2-2 5Z"/><path fill="#273e44" d="m20 35 8 1-4 3Zm16 1 8-1-4 4Z"/><path d="m28 43 4-2 4 2m-11 5 7 2 7-2" fill="none"/>
</svg>
